<svg xmlns="http://www.w3.org/2000/svg">
    <!-- <symbol id="icon-logo" viewBox="0 0 140 26" fill="none" xmlns="http://www.w3.org/2000/svg">
        <path fill-rule="evenodd" clip-rule="evenodd" d="M118.81 14.7988C118.629 15.2362 118.556 15.7101 118.556 16.1839V17.5691H138.624C138.986 17.5691 139.348 17.4233 139.602 17.1681C139.855 16.9129 140 16.5484 140 16.1839C140 15.8194 139.855 15.4549 139.602 15.1998C139.348 14.9446 138.986 14.7988 138.624 14.7988H118.81ZM110.008 14.7988H113.014V17.5691H110.008C110.08 17.1317 110.116 16.6578 110.116 16.1839C110.116 15.7101 110.08 15.2362 110.008 14.7988ZM83.1307 14.7988H104.357C104.538 15.2362 104.611 15.7101 104.611 16.1839C104.611 16.6578 104.502 17.1317 104.357 17.5691H83.3842C83.2031 17.1317 83.1307 16.6578 83.1307 16.1839V14.7988ZM60.7452 14.7988H77.6248V16.1839C77.6248 16.6578 77.6611 17.1317 77.7335 17.5691H60.7814C60.6003 17.1317 60.5278 16.6578 60.5278 16.1839C60.4916 15.6736 60.564 15.1998 60.7452 14.7988ZM55.0944 17.5691H51.9069V14.7988H55.0944C55.022 15.2362 54.9858 15.7101 54.9858 16.1839C54.9858 16.6578 55.022 17.0952 55.0944 17.5691ZM37.0194 14.7988C36.8745 15.1998 36.8021 15.6372 36.8021 16.111V17.5691H46.401V14.7988H37.0194ZM26.8409 14.7988H31.2962V17.5691H26.8409C26.9133 17.1317 26.9495 16.6578 26.9495 16.1839C26.9133 15.7101 26.9133 15.2362 26.8409 14.7988ZM21.1539 14.7988C21.3351 15.2362 21.4075 15.7101 21.4075 16.1839C21.4075 16.6578 21.2988 17.1317 21.1539 17.5691H1.37646C1.01423 17.5691 0.652005 17.4233 0.398447 17.1681C0.144889 16.9129 0 16.5484 0 16.1839C0 15.8194 0.144889 15.4549 0.398447 15.1998C0.652005 14.9446 1.01423 14.7988 1.37646 14.7988H21.1539Z" fill="#9FCB96"/>
        <path fill-rule="evenodd" clip-rule="evenodd" d="M8.36746 17.5691H14.1268C14.6702 18.9906 16.0466 19.9748 17.6404 19.9748C19.7413 19.9748 21.4076 18.2616 21.4076 16.1839C21.4076 14.0698 19.7051 12.3931 17.6404 12.3931C16.0466 12.3931 14.6702 13.3773 14.1268 14.7988H8.36746V0.109347H13.8733V7.65457C15.0324 7.14426 16.3002 6.85266 17.6404 6.85266C22.7478 6.85266 26.9134 11.0444 26.9134 16.1839C26.9134 21.3234 22.784 25.4788 17.6766 25.5152H8.33124V17.5691H8.36746ZM46.4011 25.5152H51.9069V6.6704H46.4011V25.5152ZM118.52 16.1839C118.52 14.0698 120.223 12.3931 122.287 12.3931C123.881 12.3931 125.257 13.3773 125.801 14.7988H131.488C130.836 10.3154 126.96 6.85266 122.323 6.85266C120.983 6.85266 119.715 7.14426 118.556 7.65457V6.6704H113.014V25.5152H118.52V16.1839ZM36.7659 25.5152V16.0746C36.7659 13.9605 38.4684 12.2838 40.533 12.2838H43.286V6.74331H40.5693C39.229 6.74331 37.9613 7.03492 36.8021 7.54522V6.63396H31.2963V25.5152H36.7659ZM126.091 25.5152H131.596V17.5691H126.091V25.5152ZM73.5318 25.5152H64.2588C59.1514 25.5152 54.9858 21.3234 54.9858 16.1839C54.9858 11.0444 59.1514 6.85266 64.2588 6.85266C68.9315 6.85266 72.7711 10.3154 73.4231 14.7988H67.7724C67.229 13.3773 65.8526 12.3931 64.2588 12.3931C62.1579 12.3931 60.4917 14.1063 60.4917 16.1839C60.4917 18.2981 62.1941 19.9748 64.2588 19.9748C65.8526 19.9748 67.229 18.9542 67.7724 17.5691H73.5318V25.5152ZM83.1307 6.81621V0.0729051H77.6249V6.81621H75.6327V12.3567H77.6249V16.1475C77.6249 21.287 81.7905 25.4788 86.8979 25.4788H89.6508V19.9383H86.8979C84.797 19.9383 83.1307 18.2252 83.1307 16.1475V12.3567H86.8979V6.81621H83.1307ZM91.643 14.7988C92.295 10.3154 96.1708 6.85266 100.807 6.85266C105.915 6.85266 110.08 11.0444 110.08 16.1839C110.08 21.3234 105.915 25.5152 100.807 25.5152C96.1346 25.5152 92.295 22.0524 91.643 17.5691H97.2937C97.8371 18.9906 99.2135 19.9748 100.807 19.9748C102.908 19.9748 104.574 18.2616 104.574 16.1839C104.574 14.0698 102.872 12.3931 100.807 12.3931C99.2135 12.3931 97.8371 13.3773 97.2937 14.7988H91.643ZM49.154 0C50.6754 0 51.9069 1.23931 51.9069 2.77023C51.9069 4.30114 50.6754 5.54045 49.154 5.54045C47.6327 5.54045 46.4011 4.30114 46.4011 2.77023C46.4011 1.23931 47.6327 0 49.154 0Z" fill="black"/>
    </symbol> -->

        <symbol id="arrow" viewBox="0 0 6 10" fill="none" xmlns="http://www.w3.org/2000/svg">
    <path fill-rule="evenodd" clip-rule="evenodd" d="M0.195262 0.195262C0.455612 -0.0650874 0.877722 -0.0650874 1.13807 0.195262L5.13807 4.19526C5.39842 4.45561 5.39842 4.87772 5.13807 5.13807L1.13807 9.13807C0.877722 9.39842 0.455612 9.39842 0.195262 9.13807C-0.0650874 8.87772 -0.0650874 8.45561 0.195262 8.19526L3.72386 4.66667L0.195262 1.13807C-0.0650874 0.877722 -0.0650874 0.455612 0.195262 0.195262Z" fill="currentColor"/>
    </symbol>
          <symbol id="calendar" viewBox="0 0 16 16" fill="none" xmlns="http://www.w3.org/2000/svg">
    <path d="M13 2.5H3C2.72386 2.5 2.5 2.72386 2.5 3V13C2.5 13.2761 2.72386 13.5 3 13.5H13C13.2761 13.5 13.5 13.2761 13.5 13V3C13.5 2.72386 13.2761 2.5 13 2.5Z" stroke="#A4A4A4" stroke-linecap="round" stroke-linejoin="round"/>
    <path d="M11 1.5V3.5" stroke="#A4A4A4" stroke-linecap="round" stroke-linejoin="round"/>
    <path d="M5 1.5V3.5" stroke="#A4A4A4" stroke-linecap="round" stroke-linejoin="round"/>
    <path d="M2.5 5.5H13.5" stroke="#A4A4A4" stroke-linecap="round" stroke-linejoin="round"/>
    </symbol>
        <symbol id="heart" viewBox="0 0 24 24" fill="none" xmlns="http://www.w3.org/2000/svg">
    <path d="M16.5022 3.00001C15.6291 2.99851 14.7677 3.20077 13.9865 3.59072C13.2052 3.98066 12.5258 4.54752 12.0022 5.24621C11.293 4.30266 10.3051 3.606 9.17823 3.25482C8.05134 2.90365 6.84256 2.91573 5.72291 3.28936C4.60327 3.663 3.62948 4.37926 2.93932 5.3368C2.24916 6.29434 1.8776 7.44467 1.8772 8.62501C1.8772 15.3621 11.2373 20.6813 11.6357 20.9044C11.7477 20.9671 11.8739 21 12.0022 21C12.1305 21 12.2567 20.9671 12.3687 20.9044C14.0902 19.8961 15.7059 18.7173 17.1914 17.3856C20.4665 14.438 22.1272 11.4905 22.1272 8.62501C22.1255 7.13368 21.5323 5.70393 20.4778 4.6494C19.4233 3.59487 17.9935 3.0017 16.5022 3.00001Z" fill="currentColor"/>
    </symbol>
        <symbol id="logo-img-desktop" viewBox="0 0 33 28" fill="none" xmlns="http://www.w3.org/2000/svg">
    <path d="M16.2436 7.09621C14.7531 7.93737 12.6466 7.96264 11.1376 7.15815C10.0953 6.60241 8.9154 6.28904 7.66565 6.28904C3.43204 6.28904 0 9.88465 0 14.32C0 18.7554 3.43204 22.3509 7.66565 22.3509C8.97908 22.3509 10.2154 22.0048 11.296 21.395C12.7864 20.5538 14.893 20.5286 16.4019 21.3331C17.4443 21.8888 18.6242 28 19.8739 28C24.1076 28 33 18.6066 33 14.1713C33 9.73585 24.1076 0 19.8739 0C18.5605 0 17.3242 6.48636 16.2436 7.09621Z" fill="currentColor"/>
 </symbol>
        <symbol id="logo-img-mobile" viewBox="0 0 27 23" fill="none" xmlns="http://www.w3.org/2000/svg">
    <path d="M13.2902 5.82903C12.0708 6.51998 10.3472 6.54074 9.11259 5.87991C8.25979 5.4234 7.29442 5.166 6.27189 5.166C2.80804 5.166 0 8.11953 0 11.7628C0 15.4062 2.80804 18.3596 6.27189 18.3596C7.34652 18.3596 8.35802 18.0754 9.24215 17.5744C10.4616 16.8835 12.1852 16.8628 13.4197 17.5236C14.2726 17.9801 15.238 23 16.2605 23C19.7244 23 27 15.284 27 11.6407C27 7.9973 19.7244 0 16.2605 0C15.1859 0 14.1744 5.32808 13.2902 5.82903Z" fill="currentColor"/>
    </symbol>
        <symbol id="logo-text" viewBox="0 0 142 13" fill="none" xmlns="http://www.w3.org/2000/svg">
    <path d="M5.83988 8.096H6.17588L6.54388 1.616H11.5359L9.55188 12.672H2.04788L-0.000121087 1.616H5.42388L5.83988 8.096ZM14.7523 4C13.9416 4 13.3443 3.84 12.9603 3.52C12.5763 3.2 12.3843 2.688 12.3843 1.984C12.3843 1.28 12.5763 0.77333 12.9603 0.463997C13.3549 0.154663 13.9523 -3.8147e-06 14.7523 -3.8147e-06C16.3523 -3.8147e-06 17.1523 0.64533 17.1523 1.936C17.1523 2.672 16.9549 3.2 16.5603 3.52C16.1656 3.84 15.5629 4 14.7523 4ZM12.3843 12.672V4.368H17.1523V12.672H12.3843ZM18.2474 0.751996H23.0154V2.768L22.9834 3.456C23.0367 3.328 23.2127 3.232 23.5114 3.168C23.81 3.09333 24.13 3.056 24.4714 3.056C25.6554 3.056 26.5727 3.48266 27.2234 4.336C27.8847 5.17866 28.2154 6.37333 28.2154 7.92C28.2154 9.456 27.874 10.6453 27.1914 11.488C26.5087 12.32 25.538 12.736 24.2794 12.736C23.426 12.736 22.7327 12.528 22.1994 12.112C22.082 12.016 21.9754 11.8987 21.8794 11.76L21.5434 12.672H18.2474V0.751996ZM22.7754 7.824V9.168C22.7754 9.30666 22.8127 9.41866 22.8874 9.504C22.9727 9.58933 23.0794 9.632 23.2074 9.632C23.346 9.632 23.458 9.58933 23.5434 9.504C23.6394 9.41866 23.6874 9.30666 23.6874 9.168V7.824C23.6874 7.696 23.6394 7.58933 23.5434 7.504C23.458 7.408 23.3514 7.36 23.2234 7.36C23.0954 7.36 22.9887 7.408 22.9034 7.504C22.818 7.58933 22.7754 7.696 22.7754 7.824ZM29.298 7.968C29.298 6.336 29.666 5.10933 30.402 4.288C31.1487 3.46666 32.3647 3.056 34.05 3.056C35.7353 3.056 36.9087 3.39733 37.57 4.08C38.2313 4.76266 38.562 5.88266 38.562 7.44L38.482 8.672H34.066V9.216C34.3327 9.28 34.722 9.312 35.234 9.312C36.322 9.312 37.202 9.264 37.874 9.168L38.21 9.12V12.128C38.1247 12.1813 37.986 12.2507 37.794 12.336C37.6127 12.4107 37.17 12.512 36.466 12.64C35.762 12.768 34.978 12.832 34.114 12.832C32.4073 12.832 31.1753 12.4267 30.418 11.616C29.6713 10.8053 29.298 9.58933 29.298 7.968ZM33.826 7.248V7.872H34.738V7.248C34.738 7.10933 34.69 6.99733 34.594 6.912C34.5087 6.82666 34.3967 6.784 34.258 6.784C34.13 6.784 34.0233 6.82666 33.938 6.912C33.8633 6.99733 33.826 7.10933 33.826 7.248ZM45.7259 6.72V7.6C45.9392 7.62133 46.3125 7.632 46.8459 7.632C47.8485 7.632 48.7445 7.6 49.5339 7.536L49.9179 7.504V12.288C48.8832 12.6507 47.4112 12.832 45.5019 12.832C43.6032 12.832 42.1472 12.3467 41.1339 11.376C40.1312 10.4053 39.6299 8.96533 39.6299 7.056C39.6299 5.136 40.1259 3.72266 41.1179 2.816C42.1099 1.90933 43.5872 1.456 45.5499 1.456C46.3712 1.456 47.1445 1.504 47.8699 1.6C48.6059 1.696 49.1285 1.792 49.4379 1.888L49.9179 2.032V6.96C48.9899 6.8 47.5925 6.72 45.7259 6.72ZM60.4006 6.624L60.3206 8.592L60.7206 8.576V12.208C60.5286 12.368 60.198 12.512 59.7286 12.64C59.2593 12.768 58.8166 12.832 58.4006 12.832C57.9846 12.832 57.654 12.7947 57.4086 12.72C57.1633 12.6453 56.982 12.5653 56.8646 12.48C56.7473 12.384 56.6566 12.2773 56.5926 12.16C56.4966 11.9893 56.4486 11.8453 56.4486 11.728C55.862 12.464 54.9286 12.832 53.6486 12.832C51.8886 12.832 51.0086 12.0853 51.0086 10.592C51.0086 9.696 51.35 9.06133 52.0326 8.688C52.7153 8.304 53.91 8.07466 55.6166 8C55.6166 7.62666 55.206 7.44 54.3846 7.44C53.83 7.44 53.2966 7.50933 52.7846 7.648C52.2833 7.78666 51.9206 7.92533 51.6966 8.064L51.3446 8.272V4.064C51.4406 3.98933 51.5846 3.89866 51.7766 3.792C51.9686 3.67466 52.422 3.52533 53.1366 3.344C53.8513 3.152 54.6353 3.056 55.4886 3.056C57.1953 3.056 58.438 3.344 59.2166 3.92C60.006 4.496 60.4006 5.39733 60.4006 6.624ZM55.8726 9.168V8.528L54.9606 8.784V9.168C54.9606 9.30666 55.0033 9.41866 55.0886 9.504C55.1846 9.58933 55.2966 9.632 55.4246 9.632C55.5633 9.632 55.67 9.58933 55.7446 9.504C55.83 9.41866 55.8726 9.30666 55.8726 9.168ZM66.0359 3.056C66.8785 3.056 67.6359 3.104 68.3079 3.2C68.9905 3.296 69.4599 3.392 69.7159 3.488L70.0839 3.632V7.632C69.3585 7.25866 68.2759 7.072 66.8359 7.072V7.456C68.1585 7.584 69.0652 7.81333 69.5559 8.144C70.0465 8.47466 70.2919 9.07733 70.2919 9.952C70.2919 10.8267 69.9665 11.5253 69.3159 12.048C68.6652 12.5707 67.5292 12.832 65.9079 12.832C65.0439 12.832 64.2759 12.784 63.6039 12.688C62.9319 12.592 62.4732 12.496 62.2279 12.4L61.8599 12.256V8.784C62.1585 8.93333 62.6172 9.072 63.2359 9.2C63.8652 9.31733 64.5105 9.376 65.1719 9.376V8.992C64.0305 8.88533 63.1665 8.624 62.5799 8.208C61.9932 7.792 61.6999 7.12 61.6999 6.192C61.6999 5.25333 62.0572 4.496 62.7719 3.92C63.4865 3.344 64.5745 3.056 66.0359 3.056ZM77.025 7.68V8.4H78.465V12.176C78.4117 12.2293 78.321 12.2933 78.193 12.368C78.0757 12.432 77.761 12.528 77.249 12.656C76.737 12.7733 76.145 12.832 75.473 12.832C73.0303 12.832 71.809 11.7653 71.809 9.632V7.68H71.185V3.696C71.6437 3.55733 72.049 3.30133 72.401 2.928C72.753 2.55466 72.993 2.21866 73.121 1.92L73.313 1.456H77.329V3.216H78.465V7.68H77.025ZM89.7133 1.456C90.5879 1.456 91.4039 1.51466 92.1613 1.632C92.9293 1.73866 93.4786 1.85066 93.8093 1.968L94.2893 2.144V6.72C93.4253 6.32533 92.2413 6.128 90.7373 6.128V6.544C92.1239 6.65066 93.1213 6.928 93.7293 7.376C94.3373 7.824 94.6413 8.50133 94.6413 9.408C94.6413 10.496 94.1986 11.3387 93.3133 11.936C92.4279 12.5333 91.0626 12.832 89.2173 12.832C88.1613 12.832 87.2279 12.7733 86.4173 12.656C85.6066 12.528 85.0626 12.4053 84.7853 12.288L84.3533 12.096V8.112C84.4493 8.15466 84.5933 8.21333 84.7853 8.288C84.9773 8.36266 85.4039 8.45866 86.0653 8.576C86.7373 8.69333 87.4573 8.752 88.2253 8.752V8.368C86.9239 8.272 85.9426 7.99466 85.2813 7.536C84.6199 7.07733 84.2893 6.27733 84.2893 5.136C84.2893 3.99466 84.7426 3.09866 85.6493 2.448C86.5559 1.78666 87.9106 1.456 89.7133 1.456ZM101.224 7.68V8.4H102.664V12.176C102.61 12.2293 102.52 12.2933 102.392 12.368C102.274 12.432 101.96 12.528 101.448 12.656C100.936 12.7733 100.344 12.832 99.6718 12.832C97.2291 12.832 96.0078 11.7653 96.0078 9.632V7.68H95.3838V3.696C95.8424 3.55733 96.2478 3.30133 96.5998 2.928C96.9518 2.55466 97.1918 2.21866 97.3198 1.92L97.5118 1.456H101.528V3.216H102.664V7.68H101.224ZM109.19 3.216H113.718V12.672H109.686L109.526 11.504C109.483 11.6213 109.387 11.7653 109.238 11.936C109.089 12.1067 108.929 12.2507 108.758 12.368C108.289 12.6773 107.67 12.832 106.902 12.832C105.857 12.832 105.067 12.544 104.534 11.968C104.011 11.392 103.75 10.56 103.75 9.472V3.216H108.278V8.48C108.278 8.608 108.321 8.72 108.406 8.816C108.502 8.90133 108.614 8.944 108.742 8.944C108.87 8.944 108.977 8.90133 109.062 8.816C109.147 8.72 109.19 8.608 109.19 8.48V3.216ZM124.769 12.672H120.737L120.577 11.504C120.534 11.6213 120.443 11.7653 120.305 11.936C120.177 12.1067 120.038 12.2507 119.889 12.368C119.494 12.6773 118.987 12.832 118.369 12.832C117.249 12.832 116.374 12.4053 115.745 11.552C115.115 10.6987 114.801 9.50933 114.801 7.984C114.801 6.448 115.121 5.24266 115.761 4.368C116.401 3.49333 117.275 3.056 118.385 3.056C118.726 3.056 119.03 3.09866 119.297 3.184C119.563 3.25866 119.745 3.33333 119.841 3.408L119.985 3.52V0.751996H124.769V12.672ZM119.329 7.824V9.168C119.329 9.30666 119.366 9.41866 119.441 9.504C119.526 9.58933 119.633 9.632 119.761 9.632C119.899 9.632 120.011 9.58933 120.097 9.504C120.193 9.41866 120.241 9.30666 120.241 9.168V7.824C120.241 7.696 120.193 7.58933 120.097 7.504C120.011 7.408 119.905 7.36 119.777 7.36C119.649 7.36 119.542 7.408 119.457 7.504C119.371 7.58933 119.329 7.696 119.329 7.824ZM128.219 4C127.408 4 126.811 3.84 126.427 3.52C126.043 3.2 125.851 2.688 125.851 1.984C125.851 1.28 126.043 0.77333 126.427 0.463997C126.822 0.154663 127.419 -3.8147e-06 128.219 -3.8147e-06C129.819 -3.8147e-06 130.619 0.64533 130.619 1.936C130.619 2.672 130.422 3.2 130.027 3.52C129.632 3.84 129.03 4 128.219 4ZM125.851 12.672V4.368H130.619V12.672H125.851ZM137.01 12.816H136.37C134.813 12.816 133.645 12.432 132.866 11.664C132.098 10.896 131.714 9.65866 131.714 7.952C131.714 6.24533 132.098 5.00266 132.866 4.224C133.645 3.44533 134.813 3.056 136.37 3.056H137.01C138.568 3.056 139.736 3.44533 140.514 4.224C141.293 5.00266 141.682 6.24533 141.682 7.952C141.682 9.65866 141.293 10.896 140.514 11.664C139.746 12.432 138.578 12.816 137.01 12.816ZM136.242 7.824V9.168C136.242 9.30666 136.28 9.41866 136.354 9.504C136.44 9.58933 136.546 9.632 136.674 9.632C136.813 9.632 136.925 9.58933 137.01 9.504C137.106 9.41866 137.154 9.30666 137.154 9.168V7.824C137.154 7.696 137.106 7.58933 137.01 7.504C136.925 7.408 136.818 7.36 136.69 7.36C136.562 7.36 136.456 7.408 136.37 7.504C136.285 7.58933 136.242 7.696 136.242 7.824Z" fill="currentColor"/>
    </symbol>
        <symbol id="magnifying" viewBox="0 0 24 24" fill="none" xmlns="http://www.w3.org/2000/svg">
    <path d="M11.5 20C16.1944 20 20 16.1944 20 11.5C20 6.80558 16.1944 3 11.5 3C6.80558 3 3 6.80558 3 11.5C3 16.1944 6.80558 20 11.5 20Z" stroke="currentColor" stroke-width="2" stroke-linecap="round" stroke-linejoin="round"/>
    <path d="M20.9999 21L17.5 17.5001" stroke="currentColor" stroke-width="2" stroke-linecap="round" stroke-linejoin="round"/>
    </symbol>
        <symbol id="note-img" viewBox="0 0 32 32" fill="none" xmlns="http://www.w3.org/2000/svg">
    <path d="M22.5 25C24.433 25 26 23.433 26 21.5C26 19.567 24.433 18 22.5 18C20.567 18 19 19.567 19 21.5C19 23.433 20.567 25 22.5 25Z" stroke="#FC6D3E" stroke-width="2" stroke-linecap="round" stroke-linejoin="round"/>
    <path d="M6.5 29C8.433 29 10 27.433 10 25.5C10 23.567 8.433 22 6.5 22C4.567 22 3 23.567 3 25.5C3 27.433 4.567 29 6.5 29Z" stroke="#FC6D3E" stroke-width="2" stroke-linecap="round" stroke-linejoin="round"/>
    <path d="M26 10L10 14" stroke="#FC6D3E" stroke-width="2" stroke-linecap="round" stroke-linejoin="round"/>
    <path d="M10 25.5V8L26 4V21.5" stroke="#FC6D3E" stroke-width="2" stroke-linecap="round" stroke-linejoin="round"/>
    </symbol>
        <symbol id="play-img" viewBox="0 0 24 24" fill="none" xmlns="http://www.w3.org/2000/svg">
    <path d="M21.3889 11.36L7.8911 3.11111C7.77741 3.04163 7.64726 3.00369 7.51404 3.0012C7.38083 2.9987 7.24935 3.03174 7.13314 3.09692C7.01692 3.16209 6.92017 3.25705 6.85283 3.37202C6.7855 3.48699 6.75 3.61783 6.75 3.75107V20.2489C6.75 20.3822 6.7855 20.513 6.85283 20.628C6.92017 20.743 7.01692 20.8379 7.13314 20.9031C7.24935 20.9683 7.38083 21.0013 7.51404 20.9988C7.64726 20.9963 7.77741 20.9584 7.8911 20.8889L21.3889 12.64C21.4985 12.573 21.5891 12.4789 21.652 12.3669C21.7148 12.2548 21.7478 12.1285 21.7478 12C21.7478 11.8715 21.7148 11.7452 21.652 11.6331C21.5891 11.5211 21.4985 11.427 21.3889 11.36Z" stroke="white" stroke-width="2" stroke-linecap="round" stroke-linejoin="round"/>
    </symbol>
        <symbol id="points-desktop" viewBox="0 0 23 4" fill="none" xmlns="http://www.w3.org/2000/svg">
    <circle cx="2" cy="2" r="2" fill="#C4C4C4"/>
    <circle cx="11.5" cy="2" r="2" fill="#C4C4C4"/>
    <circle cx="21" cy="2" r="2" fill="#C4C4C4"/>
    </symbol>
        <symbol id="points-mobile" viewBox="0 0 17 4" fill="none" xmlns="http://www.w3.org/2000/svg">
    <circle cx="2" cy="2" r="2" fill="#C4C4C4"/>
    <circle cx="8.5" cy="2" r="2" fill="#C4C4C4"/>
    <circle cx="15" cy="2" r="2" fill="#C4C4C4"/>
    </symbol>
        <symbol id="time" viewBox="0 0 16 16" fill="none" xmlns="http://www.w3.org/2000/svg">
    <path d="M8 14C11.3137 14 14 11.3137 14 8C14 4.68629 11.3137 2 8 2C4.68629 2 2 4.68629 2 8C2 11.3137 4.68629 14 8 14Z" stroke="#A4A4A4" stroke-miterlimit="10"/>
    <path d="M8 4.5V8H11.5" stroke="#A4A4A4" stroke-linecap="round" stroke-linejoin="round"/>
    </symbol>
        <symbol id="icon-close" width="25" height="24" viewBox="0 0 25 24" fill="none" xmlns="http://www.w3.org/2000/svg">
        <path d="M8.72803 16.2427L17.2133 7.75739" stroke="#292D32" stroke-linecap="round" stroke-linejoin="round"/>
        <path d="M17.2133 16.2426L8.72803 7.75732" stroke="#292D32" stroke-linecap="round" stroke-linejoin="round"/>
    </symbol>
        <symbol id="play" viewBox="0 0 13 15" fill="none" xmlns="http://www.w3.org/2000/svg">
    <path d="M12.0385 8.91375C11.9679 8.98625 11.7012 9.29625 11.4528 9.55125C9.99635 11.155 6.19703 13.78 4.20848 14.5813C3.90648 14.71 3.14296 14.9825 2.73502 15C2.34413 15 1.97151 14.91 1.61593 14.7275C1.17267 14.4725 0.817097 14.0713 0.62226 13.5975C0.496834 13.2688 0.301997 12.285 0.301997 12.2675C0.10716 11.1913 0 9.4425 0 7.51C0 5.66875 0.10716 3.99125 0.266683 2.89875C0.284949 2.88125 0.479786 1.65875 0.692888 1.24C1.08378 0.475 1.8473 0 2.66439 0H2.73502C3.26717 0.01875 4.38626 0.49375 4.38626 0.51125C6.26766 1.31375 9.9793 3.81 11.471 5.46875C11.471 5.46875 11.8911 5.895 12.0738 6.16125C12.3587 6.54375 12.5 7.0175 12.5 7.49125C12.5 8.02 12.3405 8.5125 12.0385 8.91375Z" fill="white"/>
    </symbol>
        <symbol id="next-track" viewBox="0 0 10 12" fill="none" xmlns="http://www.w3.org/2000/svg">
    <path d="M10 0.5V11.5C10 11.6326 9.94732 11.7598 9.85355 11.8536C9.75979 11.9473 9.63261 12 9.5 12C9.36739 12 9.24021 11.9473 9.14645 11.8536C9.05268 11.7598 9 11.6326 9 11.5V6.89151L1.52148 11.4618C1.36989 11.5544 1.19636 11.605 1.01873 11.6083C0.841109 11.6116 0.665804 11.5676 0.510852 11.4807C0.355901 11.3938 0.226897 11.2672 0.137111 11.1139C0.0473251 10.9606 -1.32783e-06 10.7861 0 10.6085V1.39154C-2.12292e-06 1.21389 0.0473207 1.03944 0.137101 0.886149C0.226881 0.732854 0.355877 0.606243 0.51082 0.519338C0.665764 0.432434 0.841061 0.388374 1.01868 0.39169C1.1963 0.395007 1.36983 0.44558 1.52142 0.538208L9 5.10846V0.5C9 0.367392 9.05268 0.240215 9.14645 0.146447C9.24021 0.0526785 9.36739 0 9.5 0C9.63261 0 9.75979 0.0526785 9.85355 0.146447C9.94732 0.240215 10 0.367392 10 0.5Z" fill="#AAAAAA"/>
    </symbol>
    <symbol id="repeat" viewBox="0 0 16 16" fill="none" xmlns="http://www.w3.org/2000/svg">
    <path d="M2 8.50001C2.13261 8.5 2.25978 8.44732 2.35355 8.35356C2.44731 8.25979 2.49999 8.13262 2.5 8.00001C2.50105 7.07207 2.87013 6.18244 3.52628 5.52629C4.18243 4.87014 5.07206 4.50106 6 4.50001H12.7929L12.1464 5.14646C12.0527 5.24024 12 5.36742 12 5.50003C12 5.63264 12.0527 5.75982 12.1465 5.85359C12.2402 5.94735 12.3674 6.00003 12.5 6.00002C12.6326 6.00002 12.7598 5.94733 12.8536 5.85356L14.3536 4.35356C14.3553 4.35188 14.3567 4.34999 14.3583 4.34828C14.3681 4.33824 14.3777 4.32792 14.3866 4.31706C14.3918 4.31065 14.3964 4.3039 14.4013 4.29731C14.4061 4.29084 14.4112 4.28453 14.4157 4.27781C14.4208 4.27015 14.4252 4.26222 14.4299 4.25438C14.4336 4.24821 14.4374 4.24223 14.4408 4.23591C14.4451 4.22797 14.4487 4.21983 14.4525 4.21174C14.4556 4.20503 14.459 4.19844 14.4618 4.19154C14.4651 4.1837 14.4677 4.1757 14.4706 4.16774C14.4732 4.16029 14.4761 4.15297 14.4784 4.14537C14.4808 4.13734 14.4826 4.12916 14.4846 4.12104C14.4865 4.11336 14.4887 4.10572 14.4903 4.09788C14.4922 4.08845 14.4933 4.0789 14.4946 4.06935C14.4956 4.06272 14.4968 4.05622 14.4975 4.04951C14.5008 4.01659 14.5008 3.98343 14.4975 3.95051C14.4968 3.9438 14.4956 3.9373 14.4946 3.93067C14.4933 3.92112 14.4922 3.91157 14.4903 3.90214C14.4887 3.8943 14.4865 3.88667 14.4846 3.87898C14.4826 3.87086 14.4808 3.86268 14.4784 3.85466C14.4761 3.84706 14.4732 3.83973 14.4706 3.83229C14.4677 3.82432 14.4651 3.81633 14.4618 3.80848C14.459 3.80159 14.4556 3.79499 14.4525 3.78828C14.4487 3.78019 14.4451 3.77204 14.4408 3.76411C14.4374 3.75779 14.4336 3.75181 14.4299 3.74565C14.4252 3.7378 14.4208 3.72987 14.4157 3.72221C14.4112 3.71549 14.4061 3.70918 14.4013 3.70271C14.3964 3.69612 14.3918 3.68937 14.3866 3.68296C14.3775 3.67189 14.3678 3.66139 14.3578 3.65113C14.3563 3.64964 14.3551 3.64796 14.3536 3.64647L12.8536 2.14647C12.7598 2.05269 12.6326 2.00001 12.5 2C12.3674 1.99999 12.2402 2.05267 12.1465 2.14643C12.0527 2.2402 12 2.36738 12 2.49999C12 2.6326 12.0527 2.75978 12.1464 2.85356L12.7929 3.50001H6C4.80694 3.50135 3.66313 3.97589 2.8195 4.81951C1.97588 5.66314 1.50134 6.80695 1.5 8.00001C1.50001 8.13262 1.55269 8.25979 1.64645 8.35356C1.74022 8.44732 1.86739 8.5 2 8.50001Z" fill="#AAAAAA"/>
    <path d="M13.9999 7.5C13.8673 7.50001 13.7402 7.55269 13.6464 7.64645C13.5526 7.74022 13.5 7.86739 13.4999 8C13.4989 8.92794 13.1298 9.81757 12.4737 10.4737C11.8175 11.1299 10.9279 11.499 9.99995 11.5H3.20705L3.85352 10.8535C3.94729 10.7598 3.99996 10.6326 3.99996 10.5C3.99995 10.3674 3.94727 10.2402 3.85349 10.1464C3.75972 10.0527 3.63254 9.99998 3.49993 9.99999C3.36731 9.99999 3.24014 10.0527 3.14637 10.1465L1.64637 11.6465C1.64487 11.6479 1.64362 11.6496 1.64214 11.6511C1.63216 11.6614 1.62246 11.6719 1.61338 11.683C1.60812 11.6894 1.60352 11.6961 1.59863 11.7027C1.5938 11.7092 1.58878 11.7155 1.58428 11.7222C1.57916 11.7299 1.5747 11.7378 1.57005 11.7456C1.56638 11.7518 1.56252 11.7578 1.55914 11.7641C1.55488 11.772 1.55128 11.7802 1.54748 11.7883C1.54433 11.795 1.54096 11.8016 1.53811 11.8085C1.53486 11.8163 1.53223 11.8243 1.5294 11.8323C1.52674 11.8397 1.52387 11.847 1.52157 11.8546C1.51914 11.8627 1.51734 11.8708 1.51533 11.879C1.5134 11.8867 1.51122 11.8943 1.50967 11.9021C1.50779 11.9116 1.50663 11.9211 1.50532 11.9307C1.50439 11.9373 1.50311 11.9438 1.50245 11.9505C1.49918 11.9834 1.49918 12.0166 1.50245 12.0495C1.50311 12.0562 1.50439 12.0627 1.50532 12.0693C1.50663 12.0789 1.50779 12.0884 1.50967 12.0979C1.51122 12.1057 1.5134 12.1133 1.51533 12.121C1.51734 12.1292 1.51914 12.1373 1.52157 12.1454C1.52387 12.153 1.52674 12.1603 1.5294 12.1677C1.53223 12.1757 1.53486 12.1837 1.53811 12.1915C1.54096 12.1984 1.54433 12.205 1.54748 12.2117C1.55128 12.2198 1.55488 12.228 1.55914 12.2359C1.56252 12.2422 1.56639 12.2482 1.57005 12.2544C1.5747 12.2622 1.57915 12.2701 1.58428 12.2778C1.58878 12.2845 1.5938 12.2908 1.59863 12.2973C1.60352 12.3039 1.60812 12.3106 1.61338 12.317C1.62229 12.3279 1.63183 12.3382 1.64161 12.3483C1.64327 12.35 1.64468 12.3519 1.64637 12.3535L3.14637 13.8535C3.1928 13.9 3.24792 13.9368 3.30858 13.9619C3.36924 13.9871 3.43426 14 3.49993 14C3.56559 14 3.63061 13.9871 3.69127 13.962C3.75194 13.9368 3.80706 13.9 3.85349 13.8536C3.89993 13.8071 3.93676 13.752 3.96189 13.6914C3.98702 13.6307 3.99996 13.5657 3.99996 13.5C3.99996 13.4344 3.98703 13.3693 3.96191 13.3087C3.93678 13.248 3.89995 13.1929 3.85352 13.1465L3.20705 12.5H9.99995C11.193 12.4987 12.3368 12.0241 13.1804 11.1805C14.0241 10.3369 14.4986 9.19306 14.4999 8C14.4999 7.86739 14.4473 7.74022 14.3535 7.64645C14.2597 7.55269 14.1326 7.50001 13.9999 7.5Z" fill="#AAAAAA"/>
    </symbol>
    <svg id="shuffle" viewBox="0 0 16 16" fill="none" xmlns="http://www.w3.org/2000/svg">
    <path d="M14.9946 11.4307C14.9933 11.4211 14.9922 11.4116 14.9903 11.4021C14.9887 11.3943 14.9866 11.3867 14.9846 11.379C14.9826 11.3709 14.9808 11.3627 14.9784 11.3546C14.9761 11.3471 14.9732 11.3398 14.9706 11.3324C14.9678 11.3244 14.9651 11.3163 14.9618 11.3084C14.959 11.3017 14.9557 11.2952 14.9526 11.2886C14.9488 11.2804 14.9451 11.2721 14.9408 11.264C14.9375 11.258 14.9338 11.2522 14.9303 11.2463C14.9255 11.2382 14.9209 11.23 14.9156 11.2221C14.9114 11.2159 14.9068 11.2101 14.9024 11.2041C14.8972 11.197 14.8921 11.1897 14.8864 11.1828C14.8792 11.174 14.8713 11.1657 14.8635 11.1574C14.8601 11.1538 14.8571 11.1499 14.8536 11.1464L13.3536 9.64642C13.3071 9.59999 13.252 9.56316 13.1914 9.53803C13.1307 9.5129 13.0657 9.49997 13 9.49997C12.9343 9.49997 12.8693 9.5129 12.8086 9.53803C12.748 9.56316 12.6929 9.59999 12.6464 9.64642C12.6 9.69285 12.5632 9.74798 12.538 9.80865C12.5129 9.86931 12.5 9.93433 12.5 10C12.5 10.0657 12.5129 10.1307 12.538 10.1914C12.5632 10.252 12.6 10.3071 12.6464 10.3536L13.2929 11H12.5585C12.0015 10.9994 11.4526 10.8662 10.9573 10.6113C10.462 10.3565 10.0346 9.98729 9.71039 9.53436L7.10333 5.88446C6.68649 5.30212 6.13693 4.82744 5.50015 4.49974C4.86337 4.17203 4.15769 4.00072 3.44153 4H2C1.86739 4 1.74021 4.05268 1.64645 4.14645C1.55268 4.24021 1.5 4.36739 1.5 4.5C1.5 4.63261 1.55268 4.75979 1.64645 4.85355C1.74021 4.94732 1.86739 5 2 5H3.44153C3.99854 5.00056 4.5474 5.13379 5.04268 5.38866C5.53795 5.64353 5.96539 6.01271 6.28961 6.46564L8.89667 10.1155C9.31351 10.6979 9.86307 11.1726 10.4999 11.5003C11.1366 11.828 11.8423 11.9993 12.5585 12H13.2929L12.6464 12.6464C12.5526 12.7402 12.5 12.8674 12.5 13C12.5 13.1326 12.5526 13.2598 12.6464 13.3536C12.7402 13.4474 12.8674 13.5 13 13.5C13.1326 13.5 13.2598 13.4474 13.3536 13.3536L14.8536 11.8536C14.8571 11.8501 14.8601 11.8462 14.8635 11.8426C14.8713 11.8343 14.8792 11.826 14.8864 11.8172C14.8921 11.8103 14.8972 11.803 14.9024 11.7959C14.9068 11.7899 14.9114 11.7841 14.9156 11.7779C14.9209 11.77 14.9255 11.7618 14.9303 11.7537C14.9338 11.7478 14.9375 11.742 14.9408 11.736C14.9451 11.7279 14.9488 11.7196 14.9526 11.7114C14.9557 11.7048 14.959 11.6983 14.9618 11.6916C14.9651 11.6837 14.9678 11.6756 14.9706 11.6676C14.9732 11.6602 14.9761 11.6529 14.9784 11.6454C14.9808 11.6373 14.9826 11.6291 14.9846 11.621C14.9866 11.6133 14.9887 11.6057 14.9903 11.5979C14.9922 11.5884 14.9933 11.5789 14.9946 11.5693C14.9955 11.5627 14.9968 11.5562 14.9975 11.5495C15.0008 11.5166 15.0008 11.4834 14.9975 11.4505C14.9968 11.4438 14.9955 11.4373 14.9946 11.4307Z" fill="#AAAAAA"/>
    <path d="M8.93842 6.68632C8.99184 6.7245 9.05226 6.75179 9.11623 6.76661C9.1802 6.78144 9.24647 6.78351 9.31124 6.77271C9.37601 6.76191 9.43802 6.73846 9.49372 6.70368C9.54942 6.66891 9.59772 6.6235 9.63587 6.57004L9.71045 6.46561C10.0347 6.01269 10.4621 5.64351 10.9574 5.38863C11.4527 5.13376 12.0015 5.00053 12.5585 4.99997H13.2929L12.6465 5.6464C12.5527 5.74017 12.5 5.86736 12.5 5.99997C12.5 6.13259 12.5527 6.25978 12.6465 6.35355C12.7403 6.44733 12.8674 6.50001 13.0001 6.50001C13.1327 6.50001 13.2599 6.44733 13.3536 6.35355L14.8536 4.85355C14.8572 4.85003 14.8602 4.84618 14.8636 4.84258C14.8714 4.83428 14.8792 4.82599 14.8865 4.81717C14.8922 4.81025 14.8972 4.80298 14.9025 4.79583C14.9069 4.78985 14.9115 4.78408 14.9157 4.7779C14.921 4.76999 14.9256 4.76179 14.9304 4.75364C14.9339 4.74775 14.9376 4.74201 14.9408 4.73595C14.9452 4.72788 14.9489 4.71957 14.9527 4.71134C14.9558 4.70475 14.9591 4.69829 14.9619 4.69155C14.9652 4.68364 14.9678 4.67557 14.9707 4.66753C14.9733 4.66014 14.9761 4.65287 14.9784 4.64533C14.9809 4.63727 14.9827 4.62909 14.9847 4.62094C14.9866 4.61325 14.9888 4.60569 14.9904 4.59786C14.9922 4.5884 14.9934 4.57883 14.9947 4.56929C14.9956 4.56267 14.9969 4.55617 14.9976 4.54947C15.0008 4.51655 15.0008 4.48339 14.9976 4.45047C14.9969 4.44377 14.9956 4.43727 14.9947 4.43065C14.9934 4.42112 14.9922 4.41155 14.9904 4.40209C14.9888 4.39426 14.9866 4.38669 14.9847 4.379C14.9827 4.37085 14.9809 4.36268 14.9784 4.35462C14.9761 4.34708 14.9733 4.3398 14.9707 4.33242C14.9678 4.32438 14.9652 4.3163 14.9619 4.3084C14.9591 4.30166 14.9558 4.2952 14.9527 4.28861C14.9489 4.28037 14.9452 4.27207 14.9408 4.264C14.9376 4.25794 14.9339 4.2522 14.9304 4.24631C14.9256 4.23816 14.921 4.22995 14.9157 4.22205C14.9115 4.21587 14.9069 4.2101 14.9025 4.20412C14.8972 4.19696 14.8922 4.1897 14.8865 4.18277C14.8792 4.17395 14.8714 4.16567 14.8636 4.15737C14.8602 4.15377 14.8572 4.14992 14.8536 4.1464L13.3536 2.6464C13.2599 2.55262 13.1327 2.49994 13.0001 2.49994C12.8674 2.49994 12.7403 2.55262 12.6465 2.6464C12.5527 2.74017 12.5 2.86736 12.5 2.99997C12.5 3.13259 12.5527 3.25977 12.6465 3.35355L13.2929 3.99997H12.5585C11.8424 4.0007 11.1367 4.17201 10.4999 4.49971C9.86313 4.82741 9.31357 5.30209 8.89673 5.88444L8.82215 5.98887C8.78398 6.04229 8.75671 6.10272 8.74189 6.16668C8.72708 6.23065 8.72501 6.29691 8.73581 6.36168C8.74661 6.42644 8.77006 6.48845 8.80482 6.54415C8.83958 6.59985 8.88498 6.64816 8.93842 6.68632Z" fill="#AAAAAA"/>
    <path d="M7.06165 9.31365C7.00822 9.27547 6.9478 9.24818 6.88383 9.23336C6.81986 9.21854 6.7536 9.21646 6.68883 9.22726C6.62405 9.23806 6.56205 9.26152 6.50634 9.29629C6.45064 9.33107 6.40234 9.37648 6.3642 9.42993L6.28961 9.53436C5.96539 9.98728 5.53795 10.3565 5.04268 10.6113C4.5474 10.8662 3.99854 10.9994 3.44153 11H2C1.86739 11 1.74021 11.0527 1.64645 11.1464C1.55268 11.2402 1.5 11.3674 1.5 11.5C1.5 11.6326 1.55268 11.7598 1.64645 11.8535C1.74021 11.9473 1.86739 12 2 12H3.44153C4.15769 11.9993 4.86337 11.828 5.50015 11.5003C6.13693 11.1726 6.68649 10.6979 7.10333 10.1155L7.17792 10.0111C7.21609 9.95768 7.24336 9.89725 7.25817 9.83329C7.27298 9.76932 7.27505 9.70306 7.26425 9.63829C7.25346 9.57353 7.23001 9.51152 7.19524 9.45582C7.16048 9.40012 7.11508 9.35181 7.06165 9.31365Z" fill="#AAAAAA"/>
    </svg>
    <svg id="speakerLow" viewBox="0 0 16 16" fill="none" xmlns="http://www.w3.org/2000/svg">
    <path d="M5 10.5H2C1.86739 10.5 1.74021 10.4473 1.64645 10.3536C1.55268 10.2598 1.5 10.1326 1.5 10V6C1.5 5.86739 1.55268 5.74021 1.64645 5.64645C1.74021 5.55268 1.86739 5.5 2 5.5H5L9.5 2V14L5 10.5Z" stroke="#AAAAAA" stroke-linecap="round" stroke-linejoin="round"/>
    <path d="M5 5.5V10.5" stroke="#AAAAAA" stroke-linecap="round" stroke-linejoin="round"/>
    <path d="M11.9124 6.58582C12.0981 6.77153 12.2454 6.99201 12.3459 7.23466C12.4464 7.47731 12.4981 7.73739 12.4981 8.00003C12.4981 8.26267 12.4464 8.52274 12.3459 8.7654C12.2454 9.00805 12.0981 9.22853 11.9124 9.41424" stroke="#AAAAAA" stroke-linecap="round" stroke-linejoin="round"/>
    </svg>
    <symbol id="skipBack" viewBox="0 0 10 12" fill="none" xmlns="http://www.w3.org/2000/svg">
<path d="M0.5 0C0.632608 1.32606e-06 0.759784 0.0526802 0.853552 0.146448C0.94732 0.240216 0.999999 0.367392 1 0.5V5.10846L8.47858 0.538209C8.63017 0.445582 8.8037 0.395008 8.98132 0.391692C9.15894 0.388375 9.33424 0.432435 9.48918 0.519339C9.64412 0.606244 9.77312 0.732855 9.8629 0.88615C9.95268 1.03944 10 1.21389 10 1.39154V10.6085C9.99993 10.7861 9.95256 10.9605 9.86275 11.1137C9.77295 11.267 9.64396 11.3936 9.48903 11.4805C9.3341 11.5674 9.15883 11.6114 8.98124 11.6081C8.80364 11.6048 8.63012 11.5543 8.47852 11.4618L1 6.89151V11.5C1 11.6326 0.947321 11.7598 0.853553 11.8536C0.759785 11.9473 0.632608 12 0.5 12C0.367392 12 0.240215 11.9473 0.146447 11.8536C0.0526785 11.7598 0 11.6326 0 11.5V0.5C1.32606e-06 0.367392 0.0526802 0.240216 0.146448 0.146448C0.240216 0.0526802 0.367392 1.32606e-06 0.5 0Z" fill="#AAAAAA"/>
</symbol>
<symbol id="pause" xmlns="http://www.w3.org/2000/svg"  fill="currentColor" class="bi bi-pause" viewBox="0 0 16 16">
  <path d="M6 3.5a.5.5 0 0 1 .5.5v8a.5.5 0 0 1-1 0V4a.5.5 0 0 1 .5-.5m4 0a.5.5 0 0 1 .5.5v8a.5.5 0 0 1-1 0V4a.5.5 0 0 1 .5-.5"/>
</symbol>




</svg>
