<svg xmlns="http://www.w3.org/2000/svg">
    <!-- <symbol id="icon-logo" viewBox="0 0 140 26" fill="none" xmlns="http://www.w3.org/2000/svg">
        <path fill-rule="evenodd" clip-rule="evenodd" d="M118.81 14.7988C118.629 15.2362 118.556 15.7101 118.556 16.1839V17.5691H138.624C138.986 17.5691 139.348 17.4233 139.602 17.1681C139.855 16.9129 140 16.5484 140 16.1839C140 15.8194 139.855 15.4549 139.602 15.1998C139.348 14.9446 138.986 14.7988 138.624 14.7988H118.81ZM110.008 14.7988H113.014V17.5691H110.008C110.08 17.1317 110.116 16.6578 110.116 16.1839C110.116 15.7101 110.08 15.2362 110.008 14.7988ZM83.1307 14.7988H104.357C104.538 15.2362 104.611 15.7101 104.611 16.1839C104.611 16.6578 104.502 17.1317 104.357 17.5691H83.3842C83.2031 17.1317 83.1307 16.6578 83.1307 16.1839V14.7988ZM60.7452 14.7988H77.6248V16.1839C77.6248 16.6578 77.6611 17.1317 77.7335 17.5691H60.7814C60.6003 17.1317 60.5278 16.6578 60.5278 16.1839C60.4916 15.6736 60.564 15.1998 60.7452 14.7988ZM55.0944 17.5691H51.9069V14.7988H55.0944C55.022 15.2362 54.9858 15.7101 54.9858 16.1839C54.9858 16.6578 55.022 17.0952 55.0944 17.5691ZM37.0194 14.7988C36.8745 15.1998 36.8021 15.6372 36.8021 16.111V17.5691H46.401V14.7988H37.0194ZM26.8409 14.7988H31.2962V17.5691H26.8409C26.9133 17.1317 26.9495 16.6578 26.9495 16.1839C26.9133 15.7101 26.9133 15.2362 26.8409 14.7988ZM21.1539 14.7988C21.3351 15.2362 21.4075 15.7101 21.4075 16.1839C21.4075 16.6578 21.2988 17.1317 21.1539 17.5691H1.37646C1.01423 17.5691 0.652005 17.4233 0.398447 17.1681C0.144889 16.9129 0 16.5484 0 16.1839C0 15.8194 0.144889 15.4549 0.398447 15.1998C0.652005 14.9446 1.01423 14.7988 1.37646 14.7988H21.1539Z" fill="#9FCB96"/>
        <path fill-rule="evenodd" clip-rule="evenodd" d="M8.36746 17.5691H14.1268C14.6702 18.9906 16.0466 19.9748 17.6404 19.9748C19.7413 19.9748 21.4076 18.2616 21.4076 16.1839C21.4076 14.0698 19.7051 12.3931 17.6404 12.3931C16.0466 12.3931 14.6702 13.3773 14.1268 14.7988H8.36746V0.109347H13.8733V7.65457C15.0324 7.14426 16.3002 6.85266 17.6404 6.85266C22.7478 6.85266 26.9134 11.0444 26.9134 16.1839C26.9134 21.3234 22.784 25.4788 17.6766 25.5152H8.33124V17.5691H8.36746ZM46.4011 25.5152H51.9069V6.6704H46.4011V25.5152ZM118.52 16.1839C118.52 14.0698 120.223 12.3931 122.287 12.3931C123.881 12.3931 125.257 13.3773 125.801 14.7988H131.488C130.836 10.3154 126.96 6.85266 122.323 6.85266C120.983 6.85266 119.715 7.14426 118.556 7.65457V6.6704H113.014V25.5152H118.52V16.1839ZM36.7659 25.5152V16.0746C36.7659 13.9605 38.4684 12.2838 40.533 12.2838H43.286V6.74331H40.5693C39.229 6.74331 37.9613 7.03492 36.8021 7.54522V6.63396H31.2963V25.5152H36.7659ZM126.091 25.5152H131.596V17.5691H126.091V25.5152ZM73.5318 25.5152H64.2588C59.1514 25.5152 54.9858 21.3234 54.9858 16.1839C54.9858 11.0444 59.1514 6.85266 64.2588 6.85266C68.9315 6.85266 72.7711 10.3154 73.4231 14.7988H67.7724C67.229 13.3773 65.8526 12.3931 64.2588 12.3931C62.1579 12.3931 60.4917 14.1063 60.4917 16.1839C60.4917 18.2981 62.1941 19.9748 64.2588 19.9748C65.8526 19.9748 67.229 18.9542 67.7724 17.5691H73.5318V25.5152ZM83.1307 6.81621V0.0729051H77.6249V6.81621H75.6327V12.3567H77.6249V16.1475C77.6249 21.287 81.7905 25.4788 86.8979 25.4788H89.6508V19.9383H86.8979C84.797 19.9383 83.1307 18.2252 83.1307 16.1475V12.3567H86.8979V6.81621H83.1307ZM91.643 14.7988C92.295 10.3154 96.1708 6.85266 100.807 6.85266C105.915 6.85266 110.08 11.0444 110.08 16.1839C110.08 21.3234 105.915 25.5152 100.807 25.5152C96.1346 25.5152 92.295 22.0524 91.643 17.5691H97.2937C97.8371 18.9906 99.2135 19.9748 100.807 19.9748C102.908 19.9748 104.574 18.2616 104.574 16.1839C104.574 14.0698 102.872 12.3931 100.807 12.3931C99.2135 12.3931 97.8371 13.3773 97.2937 14.7988H91.643ZM49.154 0C50.6754 0 51.9069 1.23931 51.9069 2.77023C51.9069 4.30114 50.6754 5.54045 49.154 5.54045C47.6327 5.54045 46.4011 4.30114 46.4011 2.77023C46.4011 1.23931 47.6327 0 49.154 0Z" fill="black"/>
    </symbol> -->

        <symbol id="arrow" viewBox="0 0 6 10" fill="none" xmlns="http://www.w3.org/2000/svg">
    <path fill-rule="evenodd" clip-rule="evenodd" d="M0.195262 0.195262C0.455612 -0.0650874 0.877722 -0.0650874 1.13807 0.195262L5.13807 4.19526C5.39842 4.45561 5.39842 4.87772 5.13807 5.13807L1.13807 9.13807C0.877722 9.39842 0.455612 9.39842 0.195262 9.13807C-0.0650874 8.87772 -0.0650874 8.45561 0.195262 8.19526L3.72386 4.66667L0.195262 1.13807C-0.0650874 0.877722 -0.0650874 0.455612 0.195262 0.195262Z" fill="#FC6D3E"/>
    </symbol>
          <symbol id="calendar" viewBox="0 0 16 16" fill="none" xmlns="http://www.w3.org/2000/svg">
    <path d="M13 2.5H3C2.72386 2.5 2.5 2.72386 2.5 3V13C2.5 13.2761 2.72386 13.5 3 13.5H13C13.2761 13.5 13.5 13.2761 13.5 13V3C13.5 2.72386 13.2761 2.5 13 2.5Z" stroke="#A4A4A4" stroke-linecap="round" stroke-linejoin="round"/>
    <path d="M11 1.5V3.5" stroke="#A4A4A4" stroke-linecap="round" stroke-linejoin="round"/>
    <path d="M5 1.5V3.5" stroke="#A4A4A4" stroke-linecap="round" stroke-linejoin="round"/>
    <path d="M2.5 5.5H13.5" stroke="#A4A4A4" stroke-linecap="round" stroke-linejoin="round"/>
    </symbol>
        <symbol id="heart" viewBox="0 0 24 24" fill="none" xmlns="http://www.w3.org/2000/svg">
    <path d="M16.5022 3.00001C15.6291 2.99851 14.7677 3.20077 13.9865 3.59072C13.2052 3.98066 12.5258 4.54752 12.0022 5.24621C11.293 4.30266 10.3051 3.606 9.17823 3.25482C8.05134 2.90365 6.84256 2.91573 5.72291 3.28936C4.60327 3.663 3.62948 4.37926 2.93932 5.3368C2.24916 6.29434 1.8776 7.44467 1.8772 8.62501C1.8772 15.3621 11.2373 20.6813 11.6357 20.9044C11.7477 20.9671 11.8739 21 12.0022 21C12.1305 21 12.2567 20.9671 12.3687 20.9044C14.0902 19.8961 15.7059 18.7173 17.1914 17.3856C20.4665 14.438 22.1272 11.4905 22.1272 8.62501C22.1255 7.13368 21.5323 5.70393 20.4778 4.6494C19.4233 3.59487 17.9935 3.0017 16.5022 3.00001Z" fill="#FC6D3E"/>
    </symbol>
        <symbol id="logo-img-desktop" viewBox="0 0 33 28" fill="none" xmlns="http://www.w3.org/2000/svg">
    <path d="M16.2436 7.09621C14.7531 7.93737 12.6466 7.96264 11.1376 7.15815C10.0953 6.60241 8.9154 6.28904 7.66565 6.28904C3.43204 6.28904 0 9.88465 0 14.32C0 18.7554 3.43204 22.3509 7.66565 22.3509C8.97908 22.3509 10.2154 22.0048 11.296 21.395C12.7864 20.5538 14.893 20.5286 16.4019 21.3331C17.4443 21.8888 18.6242 28 19.8739 28C24.1076 28 33 18.6066 33 14.1713C33 9.73585 24.1076 0 19.8739 0C18.5605 0 17.3242 6.48636 16.2436 7.09621Z" fill="#FC6D3E"/>
    </symbol>
        <symbol id="logo-img-mobile" viewBox="0 0 27 23" fill="none" xmlns="http://www.w3.org/2000/svg">
    <path d="M13.2902 5.82903C12.0708 6.51998 10.3472 6.54074 9.11259 5.87991C8.25979 5.4234 7.29442 5.166 6.27189 5.166C2.80804 5.166 0 8.11953 0 11.7628C0 15.4062 2.80804 18.3596 6.27189 18.3596C7.34652 18.3596 8.35802 18.0754 9.24215 17.5744C10.4616 16.8835 12.1852 16.8628 13.4197 17.5236C14.2726 17.9801 15.238 23 16.2605 23C19.7244 23 27 15.284 27 11.6407C27 7.9973 19.7244 0 16.2605 0C15.1859 0 14.1744 5.32808 13.2902 5.82903Z" fill="#FC6D3E"/>
    </symbol>
        <symbol id="logo-text" viewBox="0 0 142 13" fill="none" xmlns="http://www.w3.org/2000/svg">
    <path d="M5.83988 8.096H6.17588L6.54388 1.616H11.5359L9.55188 12.672H2.04788L-0.000121087 1.616H5.42388L5.83988 8.096ZM14.7523 4C13.9416 4 13.3443 3.84 12.9603 3.52C12.5763 3.2 12.3843 2.688 12.3843 1.984C12.3843 1.28 12.5763 0.77333 12.9603 0.463997C13.3549 0.154663 13.9523 -3.8147e-06 14.7523 -3.8147e-06C16.3523 -3.8147e-06 17.1523 0.64533 17.1523 1.936C17.1523 2.672 16.9549 3.2 16.5603 3.52C16.1656 3.84 15.5629 4 14.7523 4ZM12.3843 12.672V4.368H17.1523V12.672H12.3843ZM18.2474 0.751996H23.0154V2.768L22.9834 3.456C23.0367 3.328 23.2127 3.232 23.5114 3.168C23.81 3.09333 24.13 3.056 24.4714 3.056C25.6554 3.056 26.5727 3.48266 27.2234 4.336C27.8847 5.17866 28.2154 6.37333 28.2154 7.92C28.2154 9.456 27.874 10.6453 27.1914 11.488C26.5087 12.32 25.538 12.736 24.2794 12.736C23.426 12.736 22.7327 12.528 22.1994 12.112C22.082 12.016 21.9754 11.8987 21.8794 11.76L21.5434 12.672H18.2474V0.751996ZM22.7754 7.824V9.168C22.7754 9.30666 22.8127 9.41866 22.8874 9.504C22.9727 9.58933 23.0794 9.632 23.2074 9.632C23.346 9.632 23.458 9.58933 23.5434 9.504C23.6394 9.41866 23.6874 9.30666 23.6874 9.168V7.824C23.6874 7.696 23.6394 7.58933 23.5434 7.504C23.458 7.408 23.3514 7.36 23.2234 7.36C23.0954 7.36 22.9887 7.408 22.9034 7.504C22.818 7.58933 22.7754 7.696 22.7754 7.824ZM29.298 7.968C29.298 6.336 29.666 5.10933 30.402 4.288C31.1487 3.46666 32.3647 3.056 34.05 3.056C35.7353 3.056 36.9087 3.39733 37.57 4.08C38.2313 4.76266 38.562 5.88266 38.562 7.44L38.482 8.672H34.066V9.216C34.3327 9.28 34.722 9.312 35.234 9.312C36.322 9.312 37.202 9.264 37.874 9.168L38.21 9.12V12.128C38.1247 12.1813 37.986 12.2507 37.794 12.336C37.6127 12.4107 37.17 12.512 36.466 12.64C35.762 12.768 34.978 12.832 34.114 12.832C32.4073 12.832 31.1753 12.4267 30.418 11.616C29.6713 10.8053 29.298 9.58933 29.298 7.968ZM33.826 7.248V7.872H34.738V7.248C34.738 7.10933 34.69 6.99733 34.594 6.912C34.5087 6.82666 34.3967 6.784 34.258 6.784C34.13 6.784 34.0233 6.82666 33.938 6.912C33.8633 6.99733 33.826 7.10933 33.826 7.248ZM45.7259 6.72V7.6C45.9392 7.62133 46.3125 7.632 46.8459 7.632C47.8485 7.632 48.7445 7.6 49.5339 7.536L49.9179 7.504V12.288C48.8832 12.6507 47.4112 12.832 45.5019 12.832C43.6032 12.832 42.1472 12.3467 41.1339 11.376C40.1312 10.4053 39.6299 8.96533 39.6299 7.056C39.6299 5.136 40.1259 3.72266 41.1179 2.816C42.1099 1.90933 43.5872 1.456 45.5499 1.456C46.3712 1.456 47.1445 1.504 47.8699 1.6C48.6059 1.696 49.1285 1.792 49.4379 1.888L49.9179 2.032V6.96C48.9899 6.8 47.5925 6.72 45.7259 6.72ZM60.4006 6.624L60.3206 8.592L60.7206 8.576V12.208C60.5286 12.368 60.198 12.512 59.7286 12.64C59.2593 12.768 58.8166 12.832 58.4006 12.832C57.9846 12.832 57.654 12.7947 57.4086 12.72C57.1633 12.6453 56.982 12.5653 56.8646 12.48C56.7473 12.384 56.6566 12.2773 56.5926 12.16C56.4966 11.9893 56.4486 11.8453 56.4486 11.728C55.862 12.464 54.9286 12.832 53.6486 12.832C51.8886 12.832 51.0086 12.0853 51.0086 10.592C51.0086 9.696 51.35 9.06133 52.0326 8.688C52.7153 8.304 53.91 8.07466 55.6166 8C55.6166 7.62666 55.206 7.44 54.3846 7.44C53.83 7.44 53.2966 7.50933 52.7846 7.648C52.2833 7.78666 51.9206 7.92533 51.6966 8.064L51.3446 8.272V4.064C51.4406 3.98933 51.5846 3.89866 51.7766 3.792C51.9686 3.67466 52.422 3.52533 53.1366 3.344C53.8513 3.152 54.6353 3.056 55.4886 3.056C57.1953 3.056 58.438 3.344 59.2166 3.92C60.006 4.496 60.4006 5.39733 60.4006 6.624ZM55.8726 9.168V8.528L54.9606 8.784V9.168C54.9606 9.30666 55.0033 9.41866 55.0886 9.504C55.1846 9.58933 55.2966 9.632 55.4246 9.632C55.5633 9.632 55.67 9.58933 55.7446 9.504C55.83 9.41866 55.8726 9.30666 55.8726 9.168ZM66.0359 3.056C66.8785 3.056 67.6359 3.104 68.3079 3.2C68.9905 3.296 69.4599 3.392 69.7159 3.488L70.0839 3.632V7.632C69.3585 7.25866 68.2759 7.072 66.8359 7.072V7.456C68.1585 7.584 69.0652 7.81333 69.5559 8.144C70.0465 8.47466 70.2919 9.07733 70.2919 9.952C70.2919 10.8267 69.9665 11.5253 69.3159 12.048C68.6652 12.5707 67.5292 12.832 65.9079 12.832C65.0439 12.832 64.2759 12.784 63.6039 12.688C62.9319 12.592 62.4732 12.496 62.2279 12.4L61.8599 12.256V8.784C62.1585 8.93333 62.6172 9.072 63.2359 9.2C63.8652 9.31733 64.5105 9.376 65.1719 9.376V8.992C64.0305 8.88533 63.1665 8.624 62.5799 8.208C61.9932 7.792 61.6999 7.12 61.6999 6.192C61.6999 5.25333 62.0572 4.496 62.7719 3.92C63.4865 3.344 64.5745 3.056 66.0359 3.056ZM77.025 7.68V8.4H78.465V12.176C78.4117 12.2293 78.321 12.2933 78.193 12.368C78.0757 12.432 77.761 12.528 77.249 12.656C76.737 12.7733 76.145 12.832 75.473 12.832C73.0303 12.832 71.809 11.7653 71.809 9.632V7.68H71.185V3.696C71.6437 3.55733 72.049 3.30133 72.401 2.928C72.753 2.55466 72.993 2.21866 73.121 1.92L73.313 1.456H77.329V3.216H78.465V7.68H77.025ZM89.7133 1.456C90.5879 1.456 91.4039 1.51466 92.1613 1.632C92.9293 1.73866 93.4786 1.85066 93.8093 1.968L94.2893 2.144V6.72C93.4253 6.32533 92.2413 6.128 90.7373 6.128V6.544C92.1239 6.65066 93.1213 6.928 93.7293 7.376C94.3373 7.824 94.6413 8.50133 94.6413 9.408C94.6413 10.496 94.1986 11.3387 93.3133 11.936C92.4279 12.5333 91.0626 12.832 89.2173 12.832C88.1613 12.832 87.2279 12.7733 86.4173 12.656C85.6066 12.528 85.0626 12.4053 84.7853 12.288L84.3533 12.096V8.112C84.4493 8.15466 84.5933 8.21333 84.7853 8.288C84.9773 8.36266 85.4039 8.45866 86.0653 8.576C86.7373 8.69333 87.4573 8.752 88.2253 8.752V8.368C86.9239 8.272 85.9426 7.99466 85.2813 7.536C84.6199 7.07733 84.2893 6.27733 84.2893 5.136C84.2893 3.99466 84.7426 3.09866 85.6493 2.448C86.5559 1.78666 87.9106 1.456 89.7133 1.456ZM101.224 7.68V8.4H102.664V12.176C102.61 12.2293 102.52 12.2933 102.392 12.368C102.274 12.432 101.96 12.528 101.448 12.656C100.936 12.7733 100.344 12.832 99.6718 12.832C97.2291 12.832 96.0078 11.7653 96.0078 9.632V7.68H95.3838V3.696C95.8424 3.55733 96.2478 3.30133 96.5998 2.928C96.9518 2.55466 97.1918 2.21866 97.3198 1.92L97.5118 1.456H101.528V3.216H102.664V7.68H101.224ZM109.19 3.216H113.718V12.672H109.686L109.526 11.504C109.483 11.6213 109.387 11.7653 109.238 11.936C109.089 12.1067 108.929 12.2507 108.758 12.368C108.289 12.6773 107.67 12.832 106.902 12.832C105.857 12.832 105.067 12.544 104.534 11.968C104.011 11.392 103.75 10.56 103.75 9.472V3.216H108.278V8.48C108.278 8.608 108.321 8.72 108.406 8.816C108.502 8.90133 108.614 8.944 108.742 8.944C108.87 8.944 108.977 8.90133 109.062 8.816C109.147 8.72 109.19 8.608 109.19 8.48V3.216ZM124.769 12.672H120.737L120.577 11.504C120.534 11.6213 120.443 11.7653 120.305 11.936C120.177 12.1067 120.038 12.2507 119.889 12.368C119.494 12.6773 118.987 12.832 118.369 12.832C117.249 12.832 116.374 12.4053 115.745 11.552C115.115 10.6987 114.801 9.50933 114.801 7.984C114.801 6.448 115.121 5.24266 115.761 4.368C116.401 3.49333 117.275 3.056 118.385 3.056C118.726 3.056 119.03 3.09866 119.297 3.184C119.563 3.25866 119.745 3.33333 119.841 3.408L119.985 3.52V0.751996H124.769V12.672ZM119.329 7.824V9.168C119.329 9.30666 119.366 9.41866 119.441 9.504C119.526 9.58933 119.633 9.632 119.761 9.632C119.899 9.632 120.011 9.58933 120.097 9.504C120.193 9.41866 120.241 9.30666 120.241 9.168V7.824C120.241 7.696 120.193 7.58933 120.097 7.504C120.011 7.408 119.905 7.36 119.777 7.36C119.649 7.36 119.542 7.408 119.457 7.504C119.371 7.58933 119.329 7.696 119.329 7.824ZM128.219 4C127.408 4 126.811 3.84 126.427 3.52C126.043 3.2 125.851 2.688 125.851 1.984C125.851 1.28 126.043 0.77333 126.427 0.463997C126.822 0.154663 127.419 -3.8147e-06 128.219 -3.8147e-06C129.819 -3.8147e-06 130.619 0.64533 130.619 1.936C130.619 2.672 130.422 3.2 130.027 3.52C129.632 3.84 129.03 4 128.219 4ZM125.851 12.672V4.368H130.619V12.672H125.851ZM137.01 12.816H136.37C134.813 12.816 133.645 12.432 132.866 11.664C132.098 10.896 131.714 9.65866 131.714 7.952C131.714 6.24533 132.098 5.00266 132.866 4.224C133.645 3.44533 134.813 3.056 136.37 3.056H137.01C138.568 3.056 139.736 3.44533 140.514 4.224C141.293 5.00266 141.682 6.24533 141.682 7.952C141.682 9.65866 141.293 10.896 140.514 11.664C139.746 12.432 138.578 12.816 137.01 12.816ZM136.242 7.824V9.168C136.242 9.30666 136.28 9.41866 136.354 9.504C136.44 9.58933 136.546 9.632 136.674 9.632C136.813 9.632 136.925 9.58933 137.01 9.504C137.106 9.41866 137.154 9.30666 137.154 9.168V7.824C137.154 7.696 137.106 7.58933 137.01 7.504C136.925 7.408 136.818 7.36 136.69 7.36C136.562 7.36 136.456 7.408 136.37 7.504C136.285 7.58933 136.242 7.696 136.242 7.824Z" fill="black"/>
    </symbol>
        <symbol id="magnifying" viewBox="0 0 24 24" fill="none" xmlns="http://www.w3.org/2000/svg">
    <path d="M11.5 20C16.1944 20 20 16.1944 20 11.5C20 6.80558 16.1944 3 11.5 3C6.80558 3 3 6.80558 3 11.5C3 16.1944 6.80558 20 11.5 20Z" stroke="#AAAAAA" stroke-width="2" stroke-linecap="round" stroke-linejoin="round"/>
    <path d="M20.9999 21L17.5 17.5001" stroke="#AAAAAA" stroke-width="2" stroke-linecap="round" stroke-linejoin="round"/>
    </symbol>
        <symbol id="note-img" viewBox="0 0 32 32" fill="none" xmlns="http://www.w3.org/2000/svg">
    <path d="M22.5 25C24.433 25 26 23.433 26 21.5C26 19.567 24.433 18 22.5 18C20.567 18 19 19.567 19 21.5C19 23.433 20.567 25 22.5 25Z" stroke="#FC6D3E" stroke-width="2" stroke-linecap="round" stroke-linejoin="round"/>
    <path d="M6.5 29C8.433 29 10 27.433 10 25.5C10 23.567 8.433 22 6.5 22C4.567 22 3 23.567 3 25.5C3 27.433 4.567 29 6.5 29Z" stroke="#FC6D3E" stroke-width="2" stroke-linecap="round" stroke-linejoin="round"/>
    <path d="M26 10L10 14" stroke="#FC6D3E" stroke-width="2" stroke-linecap="round" stroke-linejoin="round"/>
    <path d="M10 25.5V8L26 4V21.5" stroke="#FC6D3E" stroke-width="2" stroke-linecap="round" stroke-linejoin="round"/>
    </symbol>
        <symbol id="play-img" viewBox="0 0 24 24" fill="none" xmlns="http://www.w3.org/2000/svg">
    <path d="M21.3889 11.36L7.8911 3.11111C7.77741 3.04163 7.64726 3.00369 7.51404 3.0012C7.38083 2.9987 7.24935 3.03174 7.13314 3.09692C7.01692 3.16209 6.92017 3.25705 6.85283 3.37202C6.7855 3.48699 6.75 3.61783 6.75 3.75107V20.2489C6.75 20.3822 6.7855 20.513 6.85283 20.628C6.92017 20.743 7.01692 20.8379 7.13314 20.9031C7.24935 20.9683 7.38083 21.0013 7.51404 20.9988C7.64726 20.9963 7.77741 20.9584 7.8911 20.8889L21.3889 12.64C21.4985 12.573 21.5891 12.4789 21.652 12.3669C21.7148 12.2548 21.7478 12.1285 21.7478 12C21.7478 11.8715 21.7148 11.7452 21.652 11.6331C21.5891 11.5211 21.4985 11.427 21.3889 11.36Z" stroke="white" stroke-width="2" stroke-linecap="round" stroke-linejoin="round"/>
    </symbol>
        <symbol id="points-desktop" viewBox="0 0 23 4" fill="none" xmlns="http://www.w3.org/2000/svg">
    <circle cx="2" cy="2" r="2" fill="#C4C4C4"/>
    <circle cx="11.5" cy="2" r="2" fill="#C4C4C4"/>
    <circle cx="21" cy="2" r="2" fill="#C4C4C4"/>
    </symbol>
        <symbol id="points-mobile" viewBox="0 0 17 4" fill="none" xmlns="http://www.w3.org/2000/svg">
    <circle cx="2" cy="2" r="2" fill="#C4C4C4"/>
    <circle cx="8.5" cy="2" r="2" fill="#C4C4C4"/>
    <circle cx="15" cy="2" r="2" fill="#C4C4C4"/>
    </symbol>
        <symbol id="time" viewBox="0 0 16 16" fill="none" xmlns="http://www.w3.org/2000/svg">
    <path d="M8 14C11.3137 14 14 11.3137 14 8C14 4.68629 11.3137 2 8 2C4.68629 2 2 4.68629 2 8C2 11.3137 4.68629 14 8 14Z" stroke="#A4A4A4" stroke-miterlimit="10"/>
    <path d="M8 4.5V8H11.5" stroke="#A4A4A4" stroke-linecap="round" stroke-linejoin="round"/>
    </symbol>










   

</svg>
