<svg width="142" height="13" viewBox="0 0 142 13" fill="none" xmlns="http://www.w3.org/2000/svg">
<path d="M5.83988 8.096H6.17588L6.54388 1.616H11.5359L9.55188 12.672H2.04788L-0.000121087 1.616H5.42388L5.83988 8.096ZM14.7523 4C13.9416 4 13.3443 3.84 12.9603 3.52C12.5763 3.2 12.3843 2.688 12.3843 1.984C12.3843 1.28 12.5763 0.77333 12.9603 0.463997C13.3549 0.154663 13.9523 -3.8147e-06 14.7523 -3.8147e-06C16.3523 -3.8147e-06 17.1523 0.64533 17.1523 1.936C17.1523 2.672 16.9549 3.2 16.5603 3.52C16.1656 3.84 15.5629 4 14.7523 4ZM12.3843 12.672V4.368H17.1523V12.672H12.3843ZM18.2474 0.751996H23.0154V2.768L22.9834 3.456C23.0367 3.328 23.2127 3.232 23.5114 3.168C23.81 3.09333 24.13 3.056 24.4714 3.056C25.6554 3.056 26.5727 3.48266 27.2234 4.336C27.8847 5.17866 28.2154 6.37333 28.2154 7.92C28.2154 9.456 27.874 10.6453 27.1914 11.488C26.5087 12.32 25.538 12.736 24.2794 12.736C23.426 12.736 22.7327 12.528 22.1994 12.112C22.082 12.016 21.9754 11.8987 21.8794 11.76L21.5434 12.672H18.2474V0.751996ZM22.7754 7.824V9.168C22.7754 9.30666 22.8127 9.41866 22.8874 9.504C22.9727 9.58933 23.0794 9.632 23.2074 9.632C23.346 9.632 23.458 9.58933 23.5434 9.504C23.6394 9.41866 23.6874 9.30666 23.6874 9.168V7.824C23.6874 7.696 23.6394 7.58933 23.5434 7.504C23.458 7.408 23.3514 7.36 23.2234 7.36C23.0954 7.36 22.9887 7.408 22.9034 7.504C22.818 7.58933 22.7754 7.696 22.7754 7.824ZM29.298 7.968C29.298 6.336 29.666 5.10933 30.402 4.288C31.1487 3.46666 32.3647 3.056 34.05 3.056C35.7353 3.056 36.9087 3.39733 37.57 4.08C38.2313 4.76266 38.562 5.88266 38.562 7.44L38.482 8.672H34.066V9.216C34.3327 9.28 34.722 9.312 35.234 9.312C36.322 9.312 37.202 9.264 37.874 9.168L38.21 9.12V12.128C38.1247 12.1813 37.986 12.2507 37.794 12.336C37.6127 12.4107 37.17 12.512 36.466 12.64C35.762 12.768 34.978 12.832 34.114 12.832C32.4073 12.832 31.1753 12.4267 30.418 11.616C29.6713 10.8053 29.298 9.58933 29.298 7.968ZM33.826 7.248V7.872H34.738V7.248C34.738 7.10933 34.69 6.99733 34.594 6.912C34.5087 6.82666 34.3967 6.784 34.258 6.784C34.13 6.784 34.0233 6.82666 33.938 6.912C33.8633 6.99733 33.826 7.10933 33.826 7.248ZM45.7259 6.72V7.6C45.9392 7.62133 46.3125 7.632 46.8459 7.632C47.8485 7.632 48.7445 7.6 49.5339 7.536L49.9179 7.504V12.288C48.8832 12.6507 47.4112 12.832 45.5019 12.832C43.6032 12.832 42.1472 12.3467 41.1339 11.376C40.1312 10.4053 39.6299 8.96533 39.6299 7.056C39.6299 5.136 40.1259 3.72266 41.1179 2.816C42.1099 1.90933 43.5872 1.456 45.5499 1.456C46.3712 1.456 47.1445 1.504 47.8699 1.6C48.6059 1.696 49.1285 1.792 49.4379 1.888L49.9179 2.032V6.96C48.9899 6.8 47.5925 6.72 45.7259 6.72ZM60.4006 6.624L60.3206 8.592L60.7206 8.576V12.208C60.5286 12.368 60.198 12.512 59.7286 12.64C59.2593 12.768 58.8166 12.832 58.4006 12.832C57.9846 12.832 57.654 12.7947 57.4086 12.72C57.1633 12.6453 56.982 12.5653 56.8646 12.48C56.7473 12.384 56.6566 12.2773 56.5926 12.16C56.4966 11.9893 56.4486 11.8453 56.4486 11.728C55.862 12.464 54.9286 12.832 53.6486 12.832C51.8886 12.832 51.0086 12.0853 51.0086 10.592C51.0086 9.696 51.35 9.06133 52.0326 8.688C52.7153 8.304 53.91 8.07466 55.6166 8C55.6166 7.62666 55.206 7.44 54.3846 7.44C53.83 7.44 53.2966 7.50933 52.7846 7.648C52.2833 7.78666 51.9206 7.92533 51.6966 8.064L51.3446 8.272V4.064C51.4406 3.98933 51.5846 3.89866 51.7766 3.792C51.9686 3.67466 52.422 3.52533 53.1366 3.344C53.8513 3.152 54.6353 3.056 55.4886 3.056C57.1953 3.056 58.438 3.344 59.2166 3.92C60.006 4.496 60.4006 5.39733 60.4006 6.624ZM55.8726 9.168V8.528L54.9606 8.784V9.168C54.9606 9.30666 55.0033 9.41866 55.0886 9.504C55.1846 9.58933 55.2966 9.632 55.4246 9.632C55.5633 9.632 55.67 9.58933 55.7446 9.504C55.83 9.41866 55.8726 9.30666 55.8726 9.168ZM66.0359 3.056C66.8785 3.056 67.6359 3.104 68.3079 3.2C68.9905 3.296 69.4599 3.392 69.7159 3.488L70.0839 3.632V7.632C69.3585 7.25866 68.2759 7.072 66.8359 7.072V7.456C68.1585 7.584 69.0652 7.81333 69.5559 8.144C70.0465 8.47466 70.2919 9.07733 70.2919 9.952C70.2919 10.8267 69.9665 11.5253 69.3159 12.048C68.6652 12.5707 67.5292 12.832 65.9079 12.832C65.0439 12.832 64.2759 12.784 63.6039 12.688C62.9319 12.592 62.4732 12.496 62.2279 12.4L61.8599 12.256V8.784C62.1585 8.93333 62.6172 9.072 63.2359 9.2C63.8652 9.31733 64.5105 9.376 65.1719 9.376V8.992C64.0305 8.88533 63.1665 8.624 62.5799 8.208C61.9932 7.792 61.6999 7.12 61.6999 6.192C61.6999 5.25333 62.0572 4.496 62.7719 3.92C63.4865 3.344 64.5745 3.056 66.0359 3.056ZM77.025 7.68V8.4H78.465V12.176C78.4117 12.2293 78.321 12.2933 78.193 12.368C78.0757 12.432 77.761 12.528 77.249 12.656C76.737 12.7733 76.145 12.832 75.473 12.832C73.0303 12.832 71.809 11.7653 71.809 9.632V7.68H71.185V3.696C71.6437 3.55733 72.049 3.30133 72.401 2.928C72.753 2.55466 72.993 2.21866 73.121 1.92L73.313 1.456H77.329V3.216H78.465V7.68H77.025ZM89.7133 1.456C90.5879 1.456 91.4039 1.51466 92.1613 1.632C92.9293 1.73866 93.4786 1.85066 93.8093 1.968L94.2893 2.144V6.72C93.4253 6.32533 92.2413 6.128 90.7373 6.128V6.544C92.1239 6.65066 93.1213 6.928 93.7293 7.376C94.3373 7.824 94.6413 8.50133 94.6413 9.408C94.6413 10.496 94.1986 11.3387 93.3133 11.936C92.4279 12.5333 91.0626 12.832 89.2173 12.832C88.1613 12.832 87.2279 12.7733 86.4173 12.656C85.6066 12.528 85.0626 12.4053 84.7853 12.288L84.3533 12.096V8.112C84.4493 8.15466 84.5933 8.21333 84.7853 8.288C84.9773 8.36266 85.4039 8.45866 86.0653 8.576C86.7373 8.69333 87.4573 8.752 88.2253 8.752V8.368C86.9239 8.272 85.9426 7.99466 85.2813 7.536C84.6199 7.07733 84.2893 6.27733 84.2893 5.136C84.2893 3.99466 84.7426 3.09866 85.6493 2.448C86.5559 1.78666 87.9106 1.456 89.7133 1.456ZM101.224 7.68V8.4H102.664V12.176C102.61 12.2293 102.52 12.2933 102.392 12.368C102.274 12.432 101.96 12.528 101.448 12.656C100.936 12.7733 100.344 12.832 99.6718 12.832C97.2291 12.832 96.0078 11.7653 96.0078 9.632V7.68H95.3838V3.696C95.8424 3.55733 96.2478 3.30133 96.5998 2.928C96.9518 2.55466 97.1918 2.21866 97.3198 1.92L97.5118 1.456H101.528V3.216H102.664V7.68H101.224ZM109.19 3.216H113.718V12.672H109.686L109.526 11.504C109.483 11.6213 109.387 11.7653 109.238 11.936C109.089 12.1067 108.929 12.2507 108.758 12.368C108.289 12.6773 107.67 12.832 106.902 12.832C105.857 12.832 105.067 12.544 104.534 11.968C104.011 11.392 103.75 10.56 103.75 9.472V3.216H108.278V8.48C108.278 8.608 108.321 8.72 108.406 8.816C108.502 8.90133 108.614 8.944 108.742 8.944C108.87 8.944 108.977 8.90133 109.062 8.816C109.147 8.72 109.19 8.608 109.19 8.48V3.216ZM124.769 12.672H120.737L120.577 11.504C120.534 11.6213 120.443 11.7653 120.305 11.936C120.177 12.1067 120.038 12.2507 119.889 12.368C119.494 12.6773 118.987 12.832 118.369 12.832C117.249 12.832 116.374 12.4053 115.745 11.552C115.115 10.6987 114.801 9.50933 114.801 7.984C114.801 6.448 115.121 5.24266 115.761 4.368C116.401 3.49333 117.275 3.056 118.385 3.056C118.726 3.056 119.03 3.09866 119.297 3.184C119.563 3.25866 119.745 3.33333 119.841 3.408L119.985 3.52V0.751996H124.769V12.672ZM119.329 7.824V9.168C119.329 9.30666 119.366 9.41866 119.441 9.504C119.526 9.58933 119.633 9.632 119.761 9.632C119.899 9.632 120.011 9.58933 120.097 9.504C120.193 9.41866 120.241 9.30666 120.241 9.168V7.824C120.241 7.696 120.193 7.58933 120.097 7.504C120.011 7.408 119.905 7.36 119.777 7.36C119.649 7.36 119.542 7.408 119.457 7.504C119.371 7.58933 119.329 7.696 119.329 7.824ZM128.219 4C127.408 4 126.811 3.84 126.427 3.52C126.043 3.2 125.851 2.688 125.851 1.984C125.851 1.28 126.043 0.77333 126.427 0.463997C126.822 0.154663 127.419 -3.8147e-06 128.219 -3.8147e-06C129.819 -3.8147e-06 130.619 0.64533 130.619 1.936C130.619 2.672 130.422 3.2 130.027 3.52C129.632 3.84 129.03 4 128.219 4ZM125.851 12.672V4.368H130.619V12.672H125.851ZM137.01 12.816H136.37C134.813 12.816 133.645 12.432 132.866 11.664C132.098 10.896 131.714 9.65866 131.714 7.952C131.714 6.24533 132.098 5.00266 132.866 4.224C133.645 3.44533 134.813 3.056 136.37 3.056H137.01C138.568 3.056 139.736 3.44533 140.514 4.224C141.293 5.00266 141.682 6.24533 141.682 7.952C141.682 9.65866 141.293 10.896 140.514 11.664C139.746 12.432 138.578 12.816 137.01 12.816ZM136.242 7.824V9.168C136.242 9.30666 136.28 9.41866 136.354 9.504C136.44 9.58933 136.546 9.632 136.674 9.632C136.813 9.632 136.925 9.58933 137.01 9.504C137.106 9.41866 137.154 9.30666 137.154 9.168V7.824C137.154 7.696 137.106 7.58933 137.01 7.504C136.925 7.408 136.818 7.36 136.69 7.36C136.562 7.36 136.456 7.408 136.37 7.504C136.285 7.58933 136.242 7.696 136.242 7.824Z" fill="black"/>
</svg>
