<svg width="27" height="23" viewBox="0 0 27 23" fill="none" xmlns="http://www.w3.org/2000/svg">
<path d="M13.2902 5.82903C12.0708 6.51998 10.3472 6.54074 9.11259 5.87991C8.25979 5.4234 7.29442 5.166 6.27189 5.166C2.80804 5.166 0 8.11953 0 11.7628C0 15.4062 2.80804 18.3596 6.27189 18.3596C7.34652 18.3596 8.35802 18.0754 9.24215 17.5744C10.4616 16.8835 12.1852 16.8628 13.4197 17.5236C14.2726 17.9801 15.238 23 16.2605 23C19.7244 23 27 15.284 27 11.6407C27 7.9973 19.7244 0 16.2605 0C15.1859 0 14.1744 5.32808 13.2902 5.82903Z" fill="#FC6D3E"/>
</svg>
